# xmcd CD database file
#
# Track frame offsets:
#	150
#	17135
#	34707
#	50995
#	65607
#	82632
#	99065
#	116792
#	133682
#	150350
#	189875
#	206837
#	224410
#	242130
#	256625
#	294327
#	344325
#
# Disc length: 4795 seconds
#
# Revision: 3
# Processed by: cddbd v1.5.1PL0 Copyright (c) Steve Scherf et al.
# Submitted via: CDex 1.51
#
DISCID=ea12b911
DTITLE=Thalia - I Want You
DYEAR=2003
DGENRE=R&B
TTITLE0=I Want You Featuring Fat Joe
TTITLE1=Baby, I'm In Love
TTITLE2=Misbehavin'
TTITLE3=Don't Look Back
TTITLE4=Another Girl
TTITLE5=What's It Gonna Be Boy?
TTITLE6=Closer To You
TTITLE7=Save The Day
TTITLE8=Tu Y Yo (English Version)
TTITLE9=Dance Dance (The Mexican) Hex Hector Club Mix
TTITLE10=Me Pones Sexy (I Want You) Featuring Fat Joe
TTITLE11=Alguien Real (Baby, I'm In Love)
TTITLE12=Cerca De Ti (Closer To You)
TTITLE13=Toda La Felicidad (Don't Look Back)
TTITLE14=I Want You Featuring Fat Joe (Pablo Flores Club Mix)
TTITLE15=I Want You Featuring Fat Joe (Pablo Flores Import House Mix)
TTITLE16=data
EXTD=YEAR: 2003
EXTT0=
EXTT1=
EXTT2=
EXTT3=
EXTT4=
EXTT5=
EXTT6=
EXTT7=
EXTT8=
EXTT9=
EXTT10=
EXTT11=
EXTT12=
EXTT13=
EXTT14=
EXTT15=
EXTT16=
PLAYORDER=
